# xmcd
#
# Track frame offsets:
#	150
#	12582
#	27985
#	50722
#	61307
#	77637
#	87722
#	101882
#	114570
#	128660
#	142720
#	156447
#	169802
#	182987
#	193817
#	205775
#	215832
#	229240
#	238800
#	251222
#
# Disc length: 3527 seconds
#
# Revision: 0
# Processed by: cddbd v1.5.1PL0 Copyright (c) Steve Scherf et al.
# Submitted via: dBpowerAMP V4.0
#
DISCID=300dc514
DTITLE=Music box blues - CD1
DYEAR=1900
DGENRE=Blues
TTITLE0=Dust my brown - Elmore James
TTITLE1=Baby please don't go - Big Joe Williams
TTITLE2=The trill is gone - BB King
TTITLE3=Baby what you want me to do - Jimmy Reed
TTITLE4=Mannish Boy - Muddy Waters
TTITLE5=Kansas City - Jimmy Witherspoon
TTITLE6=Slim's blues - Memphis Slim
TTITLE7=Stormy monday blue - T Bone Walker
TTITLE8=The telephone is ringing - Pee Wee Crayton
TTITLE9=I can't quit you baby -Otis Rush
TTITLE10=Mojo Hand - Lightin'Hopkins
TTITLE11=Everybody 's in the mood - Howlin' Wolf
TTITLE12=Feelin' good - Junior Parker
TTITLE13=Shake Baby Shake - Champion Jack Dupree
TTITLE14=Eevery Woman I know - Billy Emerson
TTITLE15=Dimples - Johnny Lee Hooker
TTITLE16=Easy - Walter Horton
TTITLE17=Just a little bit - Rosco Gordon
TTITLE18=Blue Guitar - Earl Hooker
TTITLE19=This is the end - Buddy Guy
EXTD=
EXTT0=
EXTT1=
EXTT2=
EXTT3=
EXTT4=
EXTT5=
EXTT6=
EXTT7=
EXTT8=
EXTT9=
EXTT10=
EXTT11=
EXTT12=
EXTT13=
EXTT14=
EXTT15=
EXTT16=
EXTT17=
EXTT18=
EXTT19=
PLAYORDER=
